<?xml version="1.0" standalone="no"?><!DOCTYPE svg PUBLIC "-//W3C//DTD SVG 1.1//EN" "http://www.w3.org/Graphics/SVG/1.1/DTD/svg11.dtd"><svg height="32" node-id="1" sillyvg="true" template-height="32" template-width="32" version="1.1" viewBox="0 0 32 32" width="32" xmlns="http://www.w3.org/2000/svg" xmlns:xlink="http://www.w3.org/1999/xlink"><defs node-id="121"><linearGradient gradientUnits="objectBoundingBox" id="paint0_linear_7139_6188" node-id="57" spreadMethod="pad" x1="29.5469" x2="6.67188" y1="-1.11133" y2="-1.11133"><stop offset="0" stop-color="#e81123"></stop><stop offset="0.371585" stop-color="#ea0a4f"></stop><stop offset="1" stop-color="#ec008c"></stop></linearGradient><linearGradient gradientUnits="objectBoundingBox" id="paint2_linear_7139_6188" node-id="64" spreadMethod="pad" x1="13.7344" x2="2.98437" y1="0.57034" y2="1.69534"><stop offset="0.526882" stop-color="#a11749" stop-opacity="0"></stop><stop offset="1" stop-color="#a21749"></stop></linearGradient><linearGradient gradientUnits="objectBoundingBox" id="paint3_linear_7139_6188" node-id="67" spreadMethod="pad" x1="18.1719" x2="18.2344" y1="4.75784" y2="-0.36716"><stop offset="0.29689" stop-color="#a11749" stop-opacity="0"></stop><stop offset="0.773939" stop-color="#a21749"></stop></linearGradient><linearGradient gradientUnits="objectBoundingBox" id="paint4_linear_7139_6188" node-id="70" spreadMethod="pad" x1="2.67188" x2="23.1719" y1="31.2578" y2="31.2578"><stop offset="0" stop-color="#e81123"></stop><stop offset="0.4437" stop-color="#ea0a4f"></stop><stop offset="1" stop-color="#ec008c"></stop></linearGradient><linearGradient gradientUnits="objectBoundingBox" id="paint7_linear_7139_6188" node-id="80" spreadMethod="pad" x1="33.2837" x2="33.2837" y1="27.3828" y2="9.38282"><stop offset="0" stop-color="#e81123"></stop><stop offset="0.4437" stop-color="#ea0a4f"></stop><stop offset="1" stop-color="#ec008c"></stop></linearGradient><linearGradient gradientUnits="objectBoundingBox" id="paint9_linear_7139_6188" node-id="87" spreadMethod="pad" x1="1.29688" x2="1.29688" y1="6.88283" y2="27.3829"><stop offset="0" stop-color="#e81123"></stop><stop offset="0.4437" stop-color="#ea0a4f"></stop><stop offset="1" stop-color="#ec008c"></stop></linearGradient><linearGradient gradientUnits="objectBoundingBox" id="paint11_linear_7139_6188" node-id="94" spreadMethod="pad" x1="5.54688" x2="0.119885" y1="10.5078" y2="7.85074"><stop offset="0.29689" stop-color="#a11749" stop-opacity="0"></stop><stop offset="0.773939" stop-color="#a21749"></stop></linearGradient><linearGradient gradientUnits="objectBoundingBox" id="paint12_linear_7139_6188" node-id="97" spreadMethod="pad" x1="8.39062" x2="32.8707" y1="2.38281" y2="5.87151"><stop offset="0" stop-color="#ff8f9e"></stop><stop offset="0.817708" stop-color="#ff8f9e" stop-opacity="0"></stop></linearGradient><linearGradient gradientUnits="objectBoundingBox" id="paint13_linear_7139_6188" node-id="100" spreadMethod="pad" x1="24.187597" x2="24.132198" y1="2.7860897" y2="4.8724494"><stop offset="0" stop-color="#ff8f9e"></stop><stop offset="1" stop-color="#ff8f9e" stop-opacity="0"></stop></linearGradient><linearGradient gradientUnits="objectBoundingBox" id="paint14_linear_7139_6188" node-id="103" spreadMethod="pad" x1="28.034798" x2="27.979498" y1="6.8266196" y2="8.912969"><stop offset="0" stop-color="#ff9fac"></stop><stop offset="0.9999999" stop-color="#ff8f9e" stop-opacity="0"></stop><stop offset="1" stop-color="#ffa6b2" stop-opacity="0"></stop></linearGradient><linearGradient gradientUnits="objectBoundingBox" id="paint15_linear_7139_6188" node-id="107" spreadMethod="pad" x1="24.4666" x2="24.4112" y1="26.4453" y2="28.5317"><stop offset="0" stop-color="#ff9fac"></stop><stop offset="0.9999999" stop-color="#ff8f9e" stop-opacity="0"></stop><stop offset="1" stop-color="#ffa6b2" stop-opacity="0"></stop></linearGradient><linearGradient gradientUnits="objectBoundingBox" id="paint16_linear_7139_6188" node-id="111" spreadMethod="pad" x1="28.8594" x2="25.2541" y1="3.94513" y2="31.2891"><stop offset="0" stop-color="#ff8f9e" stop-opacity="0"></stop><stop offset="0.707365" stop-color="#ff8f9e"></stop></linearGradient><linearGradient gradientUnits="objectBoundingBox" id="paint17_linear_7139_6188" node-id="114" spreadMethod="pad" x1="28.3643" x2="1.02722" y1="27.5202" y2="23.8627"><stop offset="0" stop-color="#ff8f9e"></stop><stop offset="1" stop-color="#ff8f9e" stop-opacity="0"></stop></linearGradient><linearGradient gradientUnits="objectBoundingBox" id="paint18_linear_7139_6188" node-id="117" spreadMethod="pad" x1="4.59627" x2="10.2732" y1="4.09048" y2="31.0806"><stop offset="0" stop-color="#ff97a5"></stop><stop offset="1" stop-color="#ffa1ad" stop-opacity="0"></stop></linearGradient><radialGradient cx="0" cy="0" fx="0" fy="0" gradientUnits="objectBoundingBox" id="paint1_radial_7139_6188" node-id="61" r="1" rev="5" spreadMethod="pad"><stop offset="0.688277" stop-color="#a11749" stop-opacity="0"></stop><stop offset="1" stop-color="#a21749"></stop></radialGradient><radialGradient cx="0" cy="0" fx="0" fy="0" gradientUnits="objectBoundingBox" id="paint5_radial_7139_6188" node-id="74" r="1" rev="4" spreadMethod="pad"><stop offset="0.688277" stop-color="#a11749" stop-opacity="0"></stop><stop offset="1" stop-color="#a21749"></stop></radialGradient><radialGradient cx="0" cy="0" fx="0" fy="0" gradientUnits="objectBoundingBox" id="paint6_radial_7139_6188" node-id="77" r="1" rev="3" spreadMethod="pad"><stop offset="0" stop-color="#a21749"></stop><stop offset="0.828125" stop-color="#a11749" stop-opacity="0"></stop></radialGradient><radialGradient cx="0" cy="0" fx="0" fy="0" gradientUnits="objectBoundingBox" id="paint8_radial_7139_6188" node-id="84" r="1" rev="2" spreadMethod="pad"><stop offset="0.688277" stop-color="#a11749" stop-opacity="0"></stop><stop offset="1" stop-color="#a21749"></stop></radialGradient><radialGradient cx="0" cy="0" fx="0" fy="0" gradientUnits="objectBoundingBox" id="paint10_radial_7139_6188" node-id="91" r="1" rev="1" spreadMethod="pad"><stop offset="0.479167" stop-color="#a21749"></stop><stop offset="1" stop-color="#a11749" stop-opacity="0"></stop></radialGradient><filter filterUnits="objectBoundingBox" height="6.39185" id="filter0_f_7139_6188" node-id="29" width="18.7188" x="6.64062" y="1.78906"><feFlood color-interpolation-filters="sRGB" flood-color="#000000" flood-opacity="0" result="BackgroundImageFix"></feFlood><feBlend color-interpolation-filters="sRGB" in="SourceGraphic" in2="BackgroundImageFix" mode="normal" result="shape"></feBlend><feGaussianBlur color-interpolation-filters="sRGB" in="shape" result="effect1_foregroundBlur_7139_6188" stdDeviation="0.625 0.625"></feGaussianBlur></filter><filter filterUnits="objectBoundingBox" height="4.17383" id="filter1_f_7139_6188" node-id="33" width="4.297039" x="22.0391" y="2.0249"><feFlood color-interpolation-filters="sRGB" flood-color="#000000" flood-opacity="0" result="BackgroundImageFix"></feFlood><feBlend color-interpolation-filters="sRGB" in="SourceGraphic" in2="BackgroundImageFix" mode="normal" result="shape"></feBlend><feGaussianBlur color-interpolation-filters="sRGB" in="shape" result="effect1_foregroundBlur_7139_6188" stdDeviation="0.5 0.5"></feGaussianBlur></filter><filter filterUnits="objectBoundingBox" height="4.1738296" id="filter2_f_7139_6188" node-id="37" width="4.297039" x="25.8863" y="6.06543"><feFlood color-interpolation-filters="sRGB" flood-color="#000000" flood-opacity="0" result="BackgroundImageFix"></feFlood><feBlend color-interpolation-filters="sRGB" in="SourceGraphic" in2="BackgroundImageFix" mode="normal" result="shape"></feBlend><feGaussianBlur color-interpolation-filters="sRGB" in="shape" result="effect1_foregroundBlur_7139_6188" stdDeviation="0.5 0.5"></feGaussianBlur></filter><filter filterUnits="objectBoundingBox" height="4.0144005" id="filter3_f_7139_6188" node-id="41" width="4.438431" x="22.2473" y="25.7639"><feFlood color-interpolation-filters="sRGB" flood-color="#000000" flood-opacity="0" result="BackgroundImageFix"></feFlood><feBlend color-interpolation-filters="sRGB" in="SourceGraphic" in2="BackgroundImageFix" mode="normal" result="shape"></feBlend><feGaussianBlur color-interpolation-filters="sRGB" in="shape" result="effect1_foregroundBlur_7139_6188" stdDeviation="0.5 0.5"></feGaussianBlur></filter><filter filterUnits="objectBoundingBox" height="19.523201" id="filter4_f_7139_6188" node-id="45" width="6.65666" x="24.0297" y="6.29688"><feFlood color-interpolation-filters="sRGB" flood-color="#000000" flood-opacity="0" result="BackgroundImageFix"></feFlood><feBlend color-interpolation-filters="sRGB" in="SourceGraphic" in2="BackgroundImageFix" mode="normal" result="shape"></feBlend><feGaussianBlur color-interpolation-filters="sRGB" in="shape" result="effect1_foregroundBlur_7139_6188" stdDeviation="0.625 0.625"></feGaussianBlur></filter><filter filterUnits="objectBoundingBox" height="6.6323204" id="filter5_f_7139_6188" node-id="49" width="20.2813" x="6.07812" y="23.063"><feFlood color-interpolation-filters="sRGB" flood-color="#000000" flood-opacity="0" result="BackgroundImageFix"></feFlood><feBlend color-interpolation-filters="sRGB" in="SourceGraphic" in2="BackgroundImageFix" mode="normal" result="shape"></feBlend><feGaussianBlur color-interpolation-filters="sRGB" in="shape" result="effect1_foregroundBlur_7139_6188" stdDeviation="0.625 0.625"></feGaussianBlur></filter><filter filterUnits="objectBoundingBox" height="20.1208" id="filter6_f_7139_6188" node-id="53" width="6.35332" x="3.0561" y="6.09009"><feFlood color-interpolation-filters="sRGB" flood-color="#000000" flood-opacity="0" result="BackgroundImageFix"></feFlood><feBlend color-interpolation-filters="sRGB" in="SourceGraphic" in2="BackgroundImageFix" mode="normal" result="shape"></feBlend><feGaussianBlur color-interpolation-filters="sRGB" in="shape" result="effect1_foregroundBlur_7139_6188" stdDeviation="0.625 0.625"></feGaussianBlur></filter></defs><path d="M 6.60 2.80 L 7.20 2.30 L 8.70 2.20 L 11.40 4.00 L 13.70 4.90 L 16.00 5.10 L 18.40 4.90 L 20.70 4.00 L 23.40 2.20 L 24.20 2.10 L 25.50 2.80 L 25.90 3.50 L 25.90 5.00 L 23.50 7.00 L 21.50 8.10 L 19.40 8.70 L 14.90 9.10 L 10.60 8.10 L 6.70 5.60 L 6.10 4.30 L 6.60 2.80 Z" fill="url(#paint0_linear_7139_6188)" fill-rule="evenodd" node-id="306" stroke="none" target-height="7.0000005" target-width="19.8" target-x="6.1" target-y="2.1"></path><path d="M 6.60 2.80 L 7.20 2.30 L 8.70 2.20 L 11.40 4.00 L 13.70 4.90 L 16.00 5.10 L 18.40 4.90 L 20.70 4.00 L 23.40 2.20 L 24.20 2.10 L 25.50 2.80 L 25.90 3.50 L 25.90 5.00 L 23.50 7.00 L 21.50 8.10 L 19.40 8.70 L 14.90 9.10 L 10.60 8.10 L 6.70 5.60 L 6.10 4.30 L 6.60 2.80 Z" fill="url(#paint1_radial_7139_6188)" fill-rule="evenodd" node-id="308" stroke="none" target-height="7.0000005" target-width="19.8" target-x="6.1" target-y="2.1"></path><path d="M 6.60 2.80 L 7.20 2.30 L 8.70 2.20 L 11.40 4.00 L 13.70 4.90 L 16.00 5.10 L 18.40 4.90 L 20.70 4.00 L 23.40 2.20 L 24.20 2.10 L 25.50 2.80 L 25.90 3.50 L 25.90 5.00 L 23.50 7.00 L 21.50 8.10 L 19.40 8.70 L 14.90 9.10 L 10.60 8.10 L 6.70 5.60 L 6.10 4.30 L 6.60 2.80 Z" fill="url(#paint2_linear_7139_6188)" fill-rule="evenodd" node-id="310" stroke="none" target-height="7.0000005" target-width="19.8" target-x="6.1" target-y="2.1"></path><path d="M 6.60 2.80 L 7.20 2.30 L 8.70 2.20 L 11.40 4.00 L 13.70 4.90 L 16.00 5.10 L 18.40 4.90 L 20.70 4.00 L 23.40 2.20 L 24.20 2.10 L 25.50 2.80 L 25.90 3.50 L 25.90 5.00 L 23.50 7.00 L 21.50 8.10 L 19.40 8.70 L 14.90 9.10 L 10.60 8.10 L 6.70 5.60 L 6.10 4.30 L 6.60 2.80 Z" fill="url(#paint3_linear_7139_6188)" fill-rule="evenodd" node-id="312" stroke="none" target-height="7.0000005" target-width="19.8" target-x="6.1" target-y="2.1"></path><path d="M 22.70 29.60 L 20.70 28.20 L 18.50 27.40 L 16.00 27.10 L 13.60 27.40 L 11.40 28.20 L 8.70 30.00 L 7.20 30.00 L 6.20 28.80 L 6.20 27.30 L 6.70 26.70 L 10.50 24.20 L 14.90 23.20 L 19.40 23.50 L 21.60 24.20 L 25.40 26.70 L 26.00 28.10 L 25.50 29.50 L 24.10 30.10 L 22.70 29.60 Z" fill="url(#paint4_linear_7139_6188)" fill-rule="evenodd" node-id="314" stroke="none" target-height="6.8999996" target-width="19.8" target-x="6.2" target-y="23.2"></path><path d="M 22.70 29.60 L 20.70 28.20 L 18.50 27.40 L 16.00 27.10 L 13.60 27.40 L 11.40 28.20 L 8.70 30.00 L 7.20 30.00 L 6.20 28.80 L 6.20 27.30 L 6.70 26.70 L 10.50 24.20 L 14.90 23.20 L 19.40 23.50 L 21.60 24.20 L 25.40 26.70 L 26.00 28.10 L 25.50 29.50 L 24.10 30.10 L 22.70 29.60 Z" fill="url(#paint5_radial_7139_6188)" fill-rule="evenodd" node-id="316" stroke="none" target-height="6.8999996" target-width="19.8" target-x="6.2" target-y="23.2"></path><path d="M 22.70 29.60 L 20.70 28.20 L 18.50 27.40 L 16.00 27.10 L 13.60 27.40 L 11.40 28.20 L 8.70 30.00 L 7.20 30.00 L 6.20 28.80 L 6.20 27.30 L 6.70 26.70 L 10.50 24.20 L 14.90 23.20 L 19.40 23.50 L 21.60 24.20 L 25.40 26.70 L 26.00 28.10 L 25.50 29.50 L 24.10 30.10 L 22.70 29.60 Z" fill="url(#paint6_radial_7139_6188)" fill-rule="evenodd" node-id="318" stroke="none" target-height="6.8999996" target-width="19.8" target-x="6.2" target-y="23.2"></path><path d="M 29.40 6.70 L 29.90 7.30 L 29.90 8.80 L 28.10 11.40 L 27.30 13.70 L 27.00 16.10 L 27.30 18.50 L 28.10 20.80 L 29.90 23.40 L 30.00 24.20 L 29.40 25.60 L 28.70 26.00 L 27.20 26.00 L 25.20 23.70 L 24.10 21.70 L 23.40 19.50 L 23.10 15.00 L 24.10 10.60 L 25.20 8.60 L 27.20 6.30 L 28.70 6.30 L 29.40 6.70 Z" fill="url(#paint7_linear_7139_6188)" fill-rule="evenodd" node-id="320" stroke="none" target-height="19.7" target-width="6.8999996" target-x="23.1" target-y="6.3"></path><path d="M 29.40 6.70 L 29.90 7.30 L 29.90 8.80 L 28.10 11.40 L 27.30 13.70 L 27.00 16.10 L 27.30 18.50 L 28.10 20.80 L 29.90 23.40 L 30.00 24.20 L 29.40 25.60 L 28.70 26.00 L 27.20 26.00 L 25.20 23.70 L 24.10 21.70 L 23.40 19.50 L 23.10 15.00 L 24.10 10.60 L 25.20 8.60 L 27.20 6.30 L 28.70 6.30 L 29.40 6.70 Z" fill="url(#paint8_radial_7139_6188)" fill-rule="evenodd" node-id="322" stroke="none" target-height="19.7" target-width="6.8999996" target-x="23.1" target-y="6.3"></path><path d="M 2.70 6.70 L 4.10 6.10 L 5.50 6.80 L 6.90 8.60 L 8.70 12.70 L 9.00 17.30 L 8.70 19.50 L 6.90 23.70 L 4.90 26.00 L 3.40 26.00 L 2.20 24.90 L 2.20 23.40 L 4.00 20.80 L 4.80 18.50 L 5.00 16.10 L 4.80 13.70 L 4.00 11.40 L 2.20 8.80 L 2.20 7.30 L 2.70 6.70 Z" fill="url(#paint9_linear_7139_6188)" fill-rule="evenodd" node-id="324" stroke="none" target-height="19.9" target-width="6.8" target-x="2.2" target-y="6.1"></path><path d="M 2.70 6.70 L 4.10 6.10 L 5.50 6.80 L 6.90 8.60 L 8.70 12.70 L 9.00 17.30 L 8.70 19.50 L 6.90 23.70 L 4.90 26.00 L 3.40 26.00 L 2.20 24.90 L 2.20 23.40 L 4.00 20.80 L 4.80 18.50 L 5.00 16.10 L 4.80 13.70 L 4.00 11.40 L 2.20 8.80 L 2.20 7.30 L 2.70 6.70 Z" fill="url(#paint10_radial_7139_6188)" fill-rule="evenodd" node-id="326" stroke="none" target-height="19.9" target-width="6.8" target-x="2.2" target-y="6.1"></path><path d="M 2.70 6.70 L 4.10 6.10 L 5.50 6.80 L 6.90 8.60 L 8.70 12.70 L 9.00 17.30 L 8.70 19.50 L 6.90 23.70 L 4.90 26.00 L 3.40 26.00 L 2.20 24.90 L 2.20 23.40 L 4.00 20.80 L 4.80 18.50 L 5.00 16.10 L 4.80 13.70 L 4.00 11.40 L 2.20 8.80 L 2.20 7.30 L 2.70 6.70 Z" fill="url(#paint11_linear_7139_6188)" fill-rule="evenodd" node-id="328" stroke="none" target-height="19.9" target-width="6.8" target-x="2.2" target-y="6.1"></path><g node-id="373"><path d="M 8.40 3.50 L 11.50 5.50 L 15.50 6.40 L 19.70 5.90 L 23.60 4.00" fill="none" filter="url(#filter0_f_7139_6188)" group-id="1" node-id="332" stroke="url(#paint12_linear_7139_6188)" stroke-linecap="round" stroke-width="1" target-height="2.9" target-width="15.200001" target-x="8.4" target-y="3.5"></path></g><g node-id="374"><g node-id="380"><path d="M 24.80 4.80 L 23.90 5.20 L 23.20 5.00 L 23.10 4.30 L 23.60 3.50 L 24.50 3.00 L 25.20 3.20 L 25.30 4.00 L 24.80 4.80 Z" fill="url(#paint13_linear_7139_6188)" fill-rule="nonzero" filter="url(#filter1_f_7139_6188)" group-id="2,8" node-id="339" stroke="none" target-height="2.1999998" target-width="2.1999989" target-x="23.1" target-y="3"></path></g></g><g node-id="375"><g node-id="381"><path d="M 28.60 8.80 L 27.70 9.20 L 27.00 9.00 L 26.90 8.30 L 27.50 7.50 L 28.30 7.10 L 29.00 7.30 L 29.10 8.00 L 28.60 8.80 Z" fill="url(#paint14_linear_7139_6188)" fill-rule="nonzero" filter="url(#filter2_f_7139_6188)" group-id="3,9" node-id="347" stroke="none" target-height="2.1" target-width="2.2000008" target-x="26.9" target-y="7.1"></path></g></g><g node-id="376"><g node-id="382"><path d="M 24.00 28.50 L 23.20 27.40 L 24.00 26.80 L 24.90 27.00 L 25.70 28.10 L 25.00 28.80 L 24.00 28.50 Z" fill="url(#paint15_linear_7139_6188)" fill-rule="nonzero" filter="url(#filter3_f_7139_6188)" group-id="4,10" node-id="355" stroke="none" target-height="2" target-width="2.5" target-x="23.2" target-y="26.8"></path></g></g><g node-id="377"><path d="M 28.90 8.00 L 26.80 11.50 L 26.10 13.60 L 25.80 15.90 L 26.00 18.50 L 26.50 20.20 L 28.90 24.10" fill="none" filter="url(#filter4_f_7139_6188)" group-id="5" node-id="361" stroke="url(#paint16_linear_7139_6188)" stroke-linecap="round" stroke-width="1" target-height="16.1" target-width="3.1000004" target-x="25.8" target-y="8"></path></g><g node-id="378"><path d="M 24.60 27.60 L 21.90 26.10 L 20.00 25.40 L 15.20 24.80 L 11.00 25.80 L 7.80 27.90" fill="none" filter="url(#filter5_f_7139_6188)" group-id="6" node-id="366" stroke="url(#paint17_linear_7139_6188)" stroke-linecap="round" stroke-width="1" target-height="3.1000004" target-width="16.8" target-x="7.8" target-y="24.8"></path></g><path d="M 4.80 7.80 L 6.40 10.40 L 7.00 12.20 L 7.70 16.90 L 6.80 21.10 L 4.80 24.50" fill="none" filter="url(#filter6_f_7139_6188)" group-id="7" node-id="371" stroke="url(#paint18_linear_7139_6188)" stroke-linecap="round" stroke-width="1" target-height="16.7" target-width="2.8999996" target-x="4.8" target-y="7.8"></path></svg>