<?xml version="1.0" standalone="no"?><!DOCTYPE svg PUBLIC "-//W3C//DTD SVG 1.1//EN" "http://www.w3.org/Graphics/SVG/1.1/DTD/svg11.dtd"><svg t="1738841291246" class="icon" viewBox="0 0 1024 1024" version="1.1" xmlns="http://www.w3.org/2000/svg" p-id="8310" xmlns:xlink="http://www.w3.org/1999/xlink" width="200" height="200"><path d="M426.238 0.118c-11.778 0-21.338 9.558-21.338 21.338v85.356h42.646V21.456c0-11.78-9.53-21.338-21.308-21.338zM555.086 0.118c-11.782 0-21.34 9.558-21.34 21.338v85.356c14.684 0.032 28.96 1.718 42.676 4.876V21.456c0-11.78-9.558-21.338-21.336-21.338zM404.9 1002.542c0 11.78 9.56 21.34 21.338 21.34s21.308-9.56 21.308-21.34v-85.292H404.9v85.292zM533.746 1002.542c0 11.78 9.558 21.34 21.34 21.34 11.778 0 21.336-9.56 21.336-21.34v-85.292h-42.676v85.292z" fill="#F6BB42" p-id="8311"></path><path d="M652.25 475.852c56.894-38.304 94.352-103.32 94.352-177.084 0-117.788-95.508-213.264-213.292-213.264H306.422v-0.062H213.38c-11.778 0-21.308 9.528-21.308 21.306s9.53 21.34 21.308 21.34h63.986v767.854H213.38c-11.778 0-21.308 9.528-21.308 21.306s9.53 21.34 21.308 21.34h383.914c129.594 0 234.632-105.04 234.632-234.604 0-110.66-76.606-203.42-179.676-228.132zM320.044 128.15h213.264c45.582 0 88.418 17.746 120.66 49.958 32.21 32.242 49.988 75.076 49.988 120.66 0 45.582-17.778 88.416-49.988 120.658-31.46 31.462-73.078 49.116-117.442 49.928H320.044V128.15z m412.998 711.556c-36.274 36.274-84.48 56.238-135.75 56.238H320.044v-383.88h213.264c1.032 0 2.062-0.032 3.094-0.032h60.89c51.27 0 99.476 19.962 135.75 56.206 36.242 36.274 56.208 84.45 56.208 135.75 0 51.268-19.964 99.474-56.208 135.718z" fill="#FFCE54" p-id="8312"></path></svg>