<?xml version="1.0" standalone="no"?><!DOCTYPE svg PUBLIC "-//W3C//DTD SVG 1.1//EN" "http://www.w3.org/Graphics/SVG/1.1/DTD/svg11.dtd"><svg t="1738832219118" class="icon" viewBox="0 0 1024 1024" version="1.1" xmlns="http://www.w3.org/2000/svg" p-id="5695" xmlns:xlink="http://www.w3.org/1999/xlink" width="200" height="200"><path d="M774.907 185.914c-75.372-75.372-179.497-121.99-294.51-121.99-230.027 0-416.5 186.473-416.5 416.5 0 115.013 46.618 219.138 121.99 294.51l589.02-589.02z" fill="#FFFFFF" p-id="5696"></path><path d="M480.5 480.5m-416.5 0a416.5 416.5 0 1 0 833 0 416.5 416.5 0 1 0-833 0Z" fill="#FFFFFF" p-id="5697"></path><path d="M480.5 480.5m-416.5 0a416.5 416.5 0 1 0 833 0 416.5 416.5 0 1 0-833 0Z" fill="#C9C9C9" p-id="5698"></path><path d="M774.907 185.914c-75.371-75.372-179.496-121.99-294.51-121.99-230.027 0-416.5 186.473-416.5 416.5 0 115.013 46.618 219.138 121.99 294.51l589.02-589.02z" fill="#4ECA6A" p-id="5699"></path></svg>